<?xml version="1.0" encoding="UTF-8"?>
<svg width="74.416mm" height="74.416mm" version="1.1" viewBox="0 0 74.416 74.416" xmlns="http://www.w3.org/2000/svg">
 <defs>
  <linearGradient id="linearGradient1303" x1="83.296" x2="114.45" y1="138.21" y2="163.63" gradientUnits="userSpaceOnUse">
   <stop stop-opacity=".31952" offset="0"/>
   <stop stop-opacity="0" offset="1"/>
  </linearGradient>
 </defs>
 <g transform="translate(-50.376 -91.685)">
  <g transform="matrix(.99999 0 0 .99999 -.63547 3.6873)">
   <g transform="matrix(.86542 0 0 .86542 16.348 10.764)" fill="#fff">
    <g>
     <circle cx="90.119" cy="130.96" r="2.311" fill="#008000" stroke-width="33.27"/>
     <circle cx="76.076" cy="130.96" r="2.311" fill="#008000" stroke-width="33.27"/>
     <path d="m97.938 108.61 2.1862 17.038-15.355 26.966-19.117 3.092 26.316 19.529c34.005 0 10.145 0.089 34.121 0.089l-0.0847-26.859z" fill="url(#linearGradient1303)"/>
    </g>
    <path d="m65.775 125.8 17.273 29.918 8.6369-14.959 8.6363-14.959-2.3813-17.187-7.446 17.187h-14.877l-7.431-17.187zm7.0919 3.5484h6.2242c-3.091 5.5939-3.5046 4.7098-6.2242 0zm14.139 0h6.2242c-3.091 5.5937-3.5051 4.7101-6.2242 0z" fill="#000"/>
    <path d="m68.294 152.3v3.5601h0.53264v-3.5601h-0.53264zm0.53324 0v3.5601h28.582v-3.5601h-28.582zm28.582 0v1.78 1.78l1.5418-0.88973 1.5418-0.89032-1.5418-0.89032-1.5418-0.88972z" fill="#ed850e"/>
    <path d="m97.417 152.31v3.5517l1.5346-0.88555 1.5418-0.89032-1.5418-0.89032-1.5346-0.88554z" fill="#ddc7a9"/>
    <path d="m99.462 153.49v1.1907l1.0312-0.59534-1.0312-0.59534z" fill="#000"/>
    <g>
     <path d="m66.22 152.3c-0.3451 0-0.62281 0.27771-0.62281 0.6228v2.3348c0 0.34509 0.27771 0.6228 0.62281 0.6228h2.0744v-3.5804h-2.0744z" fill="#dc5459" stroke-width="39.288"/>
     <circle cx="90.119" cy="130.96" r="1.2865" fill="#000" stroke-width="60.797"/>
     <circle cx="75.898" cy="130.96" r="1.2865" fill="#000" stroke-width="60.797"/>
    </g>
   </g>
  </g>
  <text x="2" y="2" fill="#000000" font-family="sans-serif" font-size="40px" style="line-height:1.25" xml:space="preserve"><tspan fill="#ffffff" font-size="10px" letter-spacing="0" text-anchor="middle" word-spacing="0" style="line-height:125%">-0.31 °</tspan></text>
 </g>
</svg>
