<?xml version="1.0" encoding="UTF-8"?>
<svg width="74.416mm" height="74.416mm" version="1.1" viewBox="0 0 74.416 74.416" xmlns="http://www.w3.org/2000/svg">
 <g transform="translate(-50.376 -91.685)">
  <g transform="matrix(.99999 0 0 .99999 -.63547 3.6873)">
   <g transform="matrix(.86542 0 0 .86542 16.348 10.764)" fill="#fff">
    <path d="m65.775 125.8 17.273 29.918 8.6369-14.959 8.6363-14.959-2.3813-17.187-7.446 17.187h-14.877l-7.431-17.187zm7.0919 3.5484h6.2242c-3.091 5.5939-3.5046 4.7098-6.2242 0zm14.139 0h6.2242c-3.091 5.5937-3.5051 4.7101-6.2242 0z"/>
    <path d="m66.224 152.3c-0.3451 0-0.62281 0.27608-0.62281 0.61922v2.3216c0 0.34315 0.27771 0.61923 0.62281 0.61923h2.0326 0.041799 29.104 0.007166v-0.00418l1.5424-0.88555 1.5418-0.89032-1.5418-0.89032-1.5424-0.88554v-0.00418h-0.007763-29.103-0.10928-1.9652z"/>
   </g>
  </g>
  <text x="2" y="2" fill="#000000" font-family="sans-serif" font-size="40px" style="line-height:1.25" xml:space="preserve"><tspan fill="#ffffff" font-size="10px" letter-spacing="0" text-anchor="middle" word-spacing="0" style="line-height:125%">-0.31 °</tspan></text>
 </g>
</svg>
