<?xml version="1.0" encoding="UTF-8" standalone="no"?>
<svg
   width="74.416mm"
   height="74.416mm"
   version="1.1"
   viewBox="0 0 74.416 74.416"
   id="svg9181"
   xmlns="http://www.w3.org/2000/svg">
  <defs
     id="defs9185" />
  <path
     id="path5238"
     style="fill:#ffffff;stroke-width:0.865411"
     d="m 24.342636,20.409542 -0.01912,16.73903 6.65024,11.6427 h -6.07043 v 3.080949 h 24.735441 l 0.0067,-0.0041 v 0.0057 l 1.328084,-0.766362 1.334285,-0.770495 -5.16e-4,-5.17e-4 -0.0041,-0.0021 0.0041,-0.0026 -1.334286,-0.770495 -1.334285,-0.769979 H 43.19885 l 6.890535,-11.6427 0.0026,-16.73903 -6.443534,14.874027 c -6.194072,-2.109188 -6.21428,-2.141104 -12.874667,0 z m 4.050916,17.944641 h 5.386751 c -2.674983,4.841019 -3.033182,4.07591 -5.386751,0 z m 12.236462,0 h 5.386235 c -2.674984,4.840846 -3.033097,4.076169 -5.386235,0 z M 22.647133,48.791272 c -0.298654,0 -0.538986,0.24034 -0.538986,0.538985 v 2.020548 c 0,0.298644 0.240332,0.538986 0.538986,0.538986 h 1.795239 v -0.01757 h 0.460437 v -3.080949 h -0.460437 -5.17e-4 z" />
</svg>
